<svg width="52" height="52" viewBox="0 0 52 52" fill="none" xmlns="http://www.w3.org/2000/svg">
<g id="steps-img">
<path id="Vector" d="M50.2609 37.0588V34.6666H51.1275C51.3665 34.6683 51.5955 34.5709 51.7601 34.3979C51.9073 34.2333 51.9907 34.0208 51.994 33.7999L50.4429 4.33338C50.2952 1.94836 48.3175 0.0893555 45.9281 0.0893555C43.5387 0.0893555 41.561 1.94836 41.4133 4.33338L39.8621 33.7999C39.8549 34.0361 39.9387 34.2654 40.0961 34.4415C40.2679 34.5985 40.496 34.6797 40.7287 34.6666H41.5953V37.0588L39.9573 40.3435C39.8338 40.5885 39.8338 40.878 39.9573 41.1234L45.1567 51.5233C45.199 51.619 45.2612 51.7045 45.3387 51.7747C45.4398 51.8682 45.5617 51.9368 45.6941 51.974H46.1705C46.3034 51.9368 46.4253 51.8682 46.526 51.7747C46.6038 51.7045 46.6656 51.619 46.7079 51.5233L51.9073 41.1234C52.0309 40.878 52.0309 40.5885 51.9073 40.3435L50.2609 37.0588ZM41.6384 32.9333L42.0027 26H49.8534L50.2609 32.9333H41.6384ZM43.1464 4.37697C43.1464 2.84042 44.3917 1.59459 45.9281 1.59459C47.4645 1.59459 48.7097 2.84042 48.7097 4.37697L49.7582 24.3102H42.0979L42.1931 22.5769H47.0198C47.4987 22.5769 47.8863 22.1888 47.8863 21.7102C47.8863 21.2312 47.4987 20.8436 47.0198 20.8436H42.2799L43.1464 4.37697ZM48.5278 34.6666V36.3999H43.3284V34.6666H48.5278ZM46.7946 47.4588V41.5999H47.6612C48.1398 41.5999 48.5278 41.2118 48.5278 40.7332C48.5278 40.2546 48.1398 39.8666 47.6612 39.8666H44.195C43.7164 39.8666 43.3284 40.2546 43.3284 40.7332C43.3284 41.2118 43.7164 41.5999 44.195 41.5999H45.0615V47.4588L41.6993 40.7332L42.9992 38.1332H48.857L50.1568 40.7332L46.7946 47.4588Z" fill="#FFBB01"/>
<path id="Vector_2" d="M29.4625 11.2668C29.9411 11.2668 30.3291 10.8787 30.3291 10.4001C30.3291 9.9215 29.9411 9.53345 29.4625 9.53345H6.93181C6.45325 9.53345 6.06525 9.9215 6.06525 10.4001V13.8668C6.06525 14.3454 6.45325 14.7334 6.93181 14.7334H29.4625C29.9411 14.7334 30.3291 14.3454 30.3291 13.8668C30.3291 13.3881 29.9411 13.0001 29.4625 13.0001H7.79838V11.2668H29.4625Z" fill="#FFBB01"/>
<path id="Vector_3" d="M30.3299 19.0666C30.3299 18.588 29.9419 18.2 29.4634 18.2H10.3989C9.92036 18.2 9.53235 18.588 9.53235 19.0666C9.53235 19.5452 9.92036 19.9333 10.3989 19.9333H29.4634C29.9419 19.9333 30.3299 19.5452 30.3299 19.0666Z" fill="#FFBB01"/>
<path id="Vector_4" d="M5.19879 23.3999C5.19879 23.8785 5.5868 24.2665 6.06536 24.2665H19.9304C20.409 24.2665 20.797 23.8785 20.797 23.3999C20.797 22.9213 20.409 22.5332 19.9304 22.5332H6.06536C5.5868 22.5332 5.19879 22.9213 5.19879 23.3999Z" fill="#FFBB01"/>
<path id="Vector_5" d="M25.1305 22.5332C24.652 22.5332 24.264 22.9213 24.264 23.3999C24.264 23.8785 24.652 24.2665 25.1305 24.2665H28.5963C29.0748 24.2665 29.4628 23.8785 29.4628 23.3999C29.4628 22.9213 29.0748 22.5332 28.5963 22.5332H25.1305Z" fill="#FFBB01"/>
<path id="Vector_6" d="M17.3307 27.7331C17.3307 27.2545 16.9427 26.8665 16.4641 26.8665H6.06536C5.5868 26.8665 5.19879 27.2545 5.19879 27.7331C5.19879 28.2117 5.5868 28.5998 6.06536 28.5998H16.4641C16.9427 28.5998 17.3307 28.2117 17.3307 27.7331Z" fill="#FFBB01"/>
<path id="Vector_7" d="M16.4641 32.0666C16.4641 31.588 16.0761 31.2 15.5976 31.2H6.06536C5.5868 31.2 5.19879 31.588 5.19879 32.0666C5.19879 32.5452 5.5868 32.9333 6.06536 32.9333H15.5976C16.0761 32.9333 16.4641 32.5452 16.4641 32.0666Z" fill="#FFBB01"/>
<path id="Vector_8" d="M6.06525 35.5332C5.58675 35.5332 5.19879 35.9213 5.19879 36.3999C5.19879 36.8785 5.58675 37.2665 6.06525 37.2665H12.1305C12.609 37.2665 12.9969 36.8785 12.9969 36.3999C12.9969 35.9213 12.609 35.5332 12.1305 35.5332H6.06525Z" fill="#FFBB01"/>
<path id="Vector_9" d="M33.7961 0H2.5997C1.16402 0 0 1.16416 0 2.59999V42.4665C0 43.9023 1.16402 45.0665 2.5997 45.0665H17.3313C17.8099 45.0665 18.1979 44.6784 18.1979 44.1998C18.1979 43.7212 17.8099 43.3331 17.3313 43.3331H2.5997C2.12114 43.3331 1.73313 42.9451 1.73313 42.4665V7.79997H34.6626V42.4665C34.6626 42.9451 34.2746 43.3331 33.7961 43.3331H31.1964C30.7178 43.3331 30.3298 43.7212 30.3298 44.1998C30.3298 44.6784 30.7178 45.0665 31.1964 45.0665H33.7961C35.2317 45.0665 36.3958 43.9023 36.3958 42.4665V2.59999C36.3958 1.16416 35.2317 0 33.7961 0ZM1.73313 6.06664V2.59999C1.73313 2.12138 2.12114 1.73333 2.5997 1.73333H33.7961C34.2746 1.73333 34.6626 2.12138 34.6626 2.59999V6.06664H1.73313Z" fill="#FFBB01"/>
<path id="Vector_10" d="M24.2636 32.0664C22.8281 32.0664 21.6642 33.2306 21.6642 34.6664C21.6642 36.1022 22.8281 37.2664 24.2636 37.2664C25.6991 37.2664 26.863 36.1022 26.863 34.6664C26.863 33.2306 25.6991 32.0664 24.2636 32.0664ZM24.2636 35.5331C23.7851 35.5331 23.3972 35.145 23.3972 34.6664C23.3972 34.1878 23.7851 33.7997 24.2636 33.7997C24.7421 33.7997 25.1301 34.1878 25.1301 34.6664C25.1301 35.145 24.7421 35.5331 24.2636 35.5331Z" fill="#FFBB01"/>
<path id="Vector_11" d="M31.1965 34.6666C31.1952 33.7034 30.6621 32.8194 29.8099 32.37C30.0934 31.4492 29.8446 30.4475 29.1638 29.7662C28.4825 29.0853 27.481 28.8365 26.5603 29.12C26.1092 28.2703 25.2261 27.7388 24.2639 27.7388C23.3017 27.7388 22.4187 28.2703 21.9676 29.12C21.0469 28.8365 20.0454 29.0853 19.3641 29.7662C18.6833 30.4475 18.4345 31.4492 18.718 32.37C17.8679 32.8211 17.3369 33.7043 17.3369 34.6666C17.3369 35.6289 17.8679 36.5125 18.718 36.9631C18.4345 37.8819 18.6812 38.8818 19.359 39.5631C19.5283 39.732 19.7208 39.875 19.9311 39.988V51.1332C19.9328 51.4831 20.1448 51.7976 20.4685 51.9304C20.7909 52.0663 21.1637 51.9943 21.4129 51.7485L24.2639 48.8887L27.115 51.7485C27.2783 51.911 27.5 52.0011 27.7302 51.9998C27.844 52.0028 27.9566 51.9791 28.0594 51.9304C28.3831 51.7976 28.5951 51.4831 28.5968 51.1332V39.9965C28.8071 39.8835 28.9996 39.7404 29.1688 39.572C29.8467 38.8903 30.0934 37.8907 29.8099 36.972C30.6646 36.5209 31.1986 35.6331 31.1965 34.6666ZM24.8792 47.0512C24.7167 46.887 24.495 46.7948 24.2639 46.7948C24.0329 46.7948 23.8112 46.887 23.6487 47.0512L21.6642 49.0444V40.2914L21.9676 40.2131C22.4187 41.0633 23.3017 41.5944 24.2639 41.5944C25.2261 41.5944 26.1092 41.0633 26.5603 40.2131L26.8636 40.2914V49.0444L24.8792 47.0512ZM28.5968 35.5332H28.4495C28.0966 35.5315 27.7776 35.744 27.6435 36.0707C27.5102 36.3952 27.5855 36.7681 27.8343 37.0152L27.9384 37.1193C28.2744 37.4574 28.2744 38.0033 27.9384 38.3414C27.8428 38.4417 27.7234 38.5162 27.5914 38.5581H27.4615C27.1886 38.6004 26.9119 38.5103 26.7164 38.3152L26.6123 38.2111C26.3644 37.9614 25.9899 37.8861 25.6649 38.0211C25.3395 38.1561 25.1284 38.4747 25.1305 38.8268V38.9999C25.1305 39.4785 24.7425 39.8666 24.2639 39.8666C23.7854 39.8666 23.3974 39.4785 23.3974 38.9999V38.8526C23.3991 38.4997 23.1867 38.1806 22.86 38.0465C22.7555 38.005 22.6434 37.9847 22.5308 37.986C22.3006 37.9847 22.0789 38.0753 21.9156 38.2373L21.8115 38.3414C21.616 38.5365 21.3393 38.6267 21.0664 38.5839H20.9365C20.8044 38.5424 20.6851 38.468 20.5895 38.3672C20.2535 38.0291 20.2535 37.4832 20.5895 37.1451L20.7025 37.0414C20.9513 36.7939 21.0266 36.4211 20.8929 36.0965C20.7588 35.7702 20.4401 35.5574 20.0872 35.5595H19.9311C19.4526 35.5595 19.0645 35.1714 19.0645 34.6928C19.0645 34.2138 19.4526 33.8261 19.9311 33.8261H20.0784C20.4312 33.8278 20.7503 33.615 20.8844 33.2887C21.0177 32.9641 20.9424 32.5913 20.6936 32.3438L20.5895 32.2401C20.2497 31.9024 20.248 31.3535 20.5853 31.0137C20.9229 30.6739 21.4717 30.6718 21.8115 31.0095L21.9156 31.1221C22.1627 31.3709 22.5359 31.4462 22.86 31.3125C23.1867 31.1783 23.3991 30.8597 23.3974 30.5068V30.3333C23.3974 29.8546 23.7854 29.4666 24.2639 29.4666C24.7425 29.4666 25.1305 29.8546 25.1305 30.3333V30.4805C25.1288 30.8339 25.3412 31.1525 25.6679 31.2867C25.992 31.42 26.3652 31.3451 26.6123 31.0958L26.7164 30.9921C27.0536 30.6523 27.6028 30.6502 27.9426 30.9875C28.2824 31.3252 28.2841 31.874 27.9468 32.2139L27.8343 32.318C27.5855 32.5651 27.5102 32.9383 27.6435 33.2625C27.7776 33.5892 28.0966 33.8016 28.4495 33.7999H28.5968C29.0753 33.7999 29.4633 34.188 29.4633 34.6666C29.4633 35.1452 29.0753 35.5332 28.5968 35.5332Z" fill="#FFBB01"/>
</g>
</svg>
