<svg width="16" height="18" viewBox="0 0 16 18" fill="none" xmlns="http://www.w3.org/2000/svg">
<rect width="16" height="18" fill="#E5E5E5"/>
<g id="phone-icon">
<path id="Vector" d="M12.6518 11.1504C12.3238 10.7667 11.9281 10.5616 11.5087 10.5616C11.0928 10.5616 10.6937 10.7629 10.3522 11.1466L9.2835 12.3433C9.19557 12.2901 9.10764 12.2407 9.0231 12.1914C8.90135 12.123 8.78637 12.0584 8.6883 11.99C7.68728 11.2758 6.77757 10.345 5.90505 9.14075C5.48233 8.54051 5.19825 8.03524 4.99196 7.52237C5.26927 7.23745 5.52629 6.94112 5.77655 6.6562C5.87124 6.54983 5.96593 6.43966 6.06062 6.33328C6.7708 5.53549 6.7708 4.50216 6.06062 3.70437L5.13738 2.66724C5.03254 2.54947 4.92433 2.4279 4.82287 2.30633C4.61996 2.07079 4.40691 1.82766 4.18709 1.59971C3.85905 1.23501 3.46676 1.04126 3.05418 1.04126C2.64159 1.04126 2.24254 1.23501 1.90436 1.59971C1.90097 1.60351 1.90097 1.60351 1.89759 1.60731L0.747772 2.91037C0.314898 3.39665 0.0680249 3.98929 0.0139157 4.67691C-0.0672481 5.78623 0.223589 6.81956 0.446789 7.49578C0.994645 9.15595 1.81305 10.6945 3.03389 12.3433C4.51512 14.3302 6.29735 15.8992 8.33321 17.0047C9.11102 17.4188 10.1492 17.9089 11.3092 17.9925C11.3802 17.9963 11.4546 18 11.5223 18C12.3035 18 12.9595 17.6847 13.4736 17.0579C13.477 17.0503 13.4837 17.0465 13.4871 17.0389C13.663 16.7996 13.8659 16.583 14.0789 16.3513C14.2243 16.1955 14.3731 16.0322 14.5186 15.8612C14.8534 15.4699 15.0292 15.014 15.0292 14.5467C15.0292 14.0757 14.85 13.6236 14.5084 13.2437L12.6518 11.1504ZM13.8625 15.1508C13.8591 15.1508 13.8591 15.1546 13.8625 15.1508C13.7306 15.3103 13.5953 15.4547 13.4499 15.6143C13.2301 15.8498 13.0069 16.0967 12.7972 16.3741C12.4556 16.7844 12.0532 16.9781 11.5256 16.9781C11.4749 16.9781 11.4208 16.9781 11.3701 16.9743C10.3657 16.9021 9.4323 16.4614 8.73226 16.0853C6.81815 15.0444 5.13738 13.5666 3.74069 11.6937C2.58748 10.1323 1.81643 8.68867 1.30577 7.13867C0.991263 6.19272 0.876281 5.45571 0.927008 4.76049C0.960827 4.31601 1.11301 3.9475 1.3937 3.63219L2.5469 2.33672C2.71261 2.16197 2.88847 2.06699 3.06094 2.06699C3.274 2.06699 3.44647 2.21136 3.55469 2.33292C3.55807 2.33672 3.56145 2.34052 3.56483 2.34432C3.77112 2.56086 3.96727 2.78501 4.17356 3.02434C4.2784 3.14591 4.38662 3.26748 4.49483 3.39285L5.41807 4.42998C5.77655 4.83267 5.77655 5.20498 5.41807 5.60767C5.32 5.71784 5.22531 5.82801 5.12723 5.93439C4.84316 6.2611 4.57262 6.56502 4.2784 6.86135C4.27163 6.86894 4.26487 6.87274 4.26149 6.88034C3.97065 7.20706 4.02476 7.52617 4.08563 7.74272C4.08901 7.75411 4.0924 7.76551 4.09578 7.77691C4.33589 8.43034 4.67407 9.04578 5.18811 9.77899L5.19149 9.78279C6.12487 11.0745 7.10898 12.0812 8.19455 12.8524C8.33321 12.9512 8.47524 13.0309 8.61051 13.1069C8.73226 13.1753 8.84724 13.2399 8.94531 13.3083C8.95884 13.3159 8.97237 13.3273 8.9859 13.3349C9.10088 13.3994 9.2091 13.4298 9.3207 13.4298C9.60139 13.4298 9.77724 13.2323 9.83473 13.1677L10.9913 11.8684C11.1063 11.7393 11.2889 11.5835 11.502 11.5835C11.7116 11.5835 11.8841 11.7317 11.989 11.8608C11.9923 11.8646 11.9923 11.8646 11.9957 11.8684L13.8591 13.9617C14.2074 14.3492 14.2074 14.7481 13.8625 15.1508Z" fill="#949494"/>
<path id="Vector_2" d="M8.64774 4.28156C9.53378 4.44872 10.3387 4.9198 10.9812 5.64161C11.6238 6.36342 12.0397 7.26759 12.1919 8.26293C12.2291 8.51366 12.4219 8.68842 12.6417 8.68842C12.6687 8.68842 12.6924 8.68462 12.7195 8.68082C12.9697 8.63523 13.1354 8.3693 13.0949 8.08817C12.9122 6.88389 12.405 5.78597 11.6305 4.916C10.8561 4.04602 9.87873 3.47617 8.80669 3.27103C8.55643 3.22544 8.32308 3.41159 8.27912 3.68892C8.23516 3.96625 8.39748 4.23598 8.64774 4.28156Z" fill="#949494"/>
<path id="Vector_3" d="M15.993 7.94016C15.6921 5.95707 14.8601 4.15254 13.5818 2.71651C12.3035 1.28049 10.6971 0.345931 8.9318 0.00781893C8.68492 -0.0415682 8.45158 0.148382 8.40761 0.42571C8.36703 0.706837 8.53274 0.968969 8.783 1.01836C10.3589 1.31848 11.7962 2.15806 12.9393 3.43833C14.0823 4.72239 14.8263 6.33697 15.0935 8.10731C15.1307 8.35805 15.3234 8.5328 15.5433 8.5328C15.5703 8.5328 15.594 8.529 15.621 8.5252C15.8679 8.48341 16.037 8.21748 15.993 7.94016Z" fill="#949494"/>
</g>
</svg>
