<svg width="52" height="52" viewBox="0 0 52 52" fill="none" xmlns="http://www.w3.org/2000/svg">
<rect width="52" height="52" fill="#E5E5E5"/>
<g id="storage-img">
<path id="Vector" d="M51.1332 25.5593H31.3125C30.8339 25.5593 30.4458 25.954 30.4458 26.4407C30.4458 26.9274 30.8339 27.322 31.3125 27.322H50.2666V36.1356H45.9332V29.9661C45.9332 29.4794 45.5452 29.0847 45.0666 29.0847C44.588 29.0847 44.1999 29.4794 44.1999 29.9661V36.1356H20.8V27.322H26C26.4786 27.322 26.8666 26.9274 26.8666 26.4407C26.8666 25.954 26.4786 25.5593 26 25.5593H19.9333C19.4547 25.5593 19.0666 25.954 19.0666 26.4407V37.0169C19.0666 37.5037 19.4547 37.8983 19.9333 37.8983H27.7333V39.661H19.9333C19.4547 39.661 19.0666 40.0556 19.0666 40.5424V46.7119H16.4666V45.8305C16.4666 45.3438 16.0786 44.9491 15.6 44.9491H13V40.5424C13 40.0556 12.6119 39.661 12.1333 39.661C11.6547 39.661 11.2666 40.0556 11.2666 40.5424V45.8305C11.2666 46.3172 11.6547 46.7119 12.1333 46.7119H14.7333V48.4746H6.06666V46.7119H8.66665C9.14526 46.7119 9.53331 46.3172 9.53331 45.8305V40.5424C9.53331 40.0556 9.14526 39.661 8.66665 39.661C8.18804 39.661 7.79998 40.0556 7.79998 40.5424V44.9491H5.19999C4.72138 44.9491 4.33332 45.3438 4.33332 45.8305V46.7119H0.866665C0.388053 46.7119 0 47.1065 0 47.5932C0 48.0799 0.388053 48.4746 0.866665 48.4746H4.33332V49.3559C4.33332 49.8426 4.72138 50.2373 5.19999 50.2373H15.6C16.0786 50.2373 16.4666 49.8426 16.4666 49.3559V48.4746H19.0666V51.1186C19.0666 51.6054 19.4547 52 19.9333 52H51.1332C51.6118 52 51.9999 51.6054 51.9999 51.1186V40.5424C51.9999 40.0556 51.6118 39.661 51.1332 39.661H43.3333V37.8983H51.1332C51.6118 37.8983 51.9999 37.5037 51.9999 37.0169V26.4407C51.9999 25.954 51.6118 25.5593 51.1332 25.5593ZM50.2666 50.2373H20.8V41.4237H44.1999V47.5932C44.1999 48.0799 44.588 48.4746 45.0666 48.4746C45.5452 48.4746 45.9332 48.0799 45.9332 47.5932V41.4237H50.2666V50.2373ZM41.5999 39.661H29.4666V37.8983H41.5999V39.661Z" fill="#FFBB01"/>
<path id="Vector_2" d="M25.9996 29.0847C24.564 29.0847 23.4 30.2686 23.4 31.7288C23.4 33.1894 24.564 34.3729 25.9996 34.3729C27.4353 34.3729 28.5993 33.1894 28.5993 31.7288C28.5993 30.2686 27.4353 29.0847 25.9996 29.0847ZM25.9996 32.6101C25.5211 32.6101 25.1331 32.2155 25.1331 31.7288C25.1331 31.2421 25.5211 30.8474 25.9996 30.8474C26.4782 30.8474 26.8662 31.2421 26.8662 31.7288C26.8662 32.2155 26.4782 32.6101 25.9996 32.6101Z" fill="#FFBB01"/>
<path id="Vector_3" d="M31.2001 34.3729C31.6786 34.3729 32.0666 33.9782 32.0666 33.4915V29.9661C32.0666 29.4793 31.6786 29.0847 31.2001 29.0847C30.7215 29.0847 30.3335 29.4793 30.3335 29.9661V33.4915C30.3335 33.9782 30.7215 34.3729 31.2001 34.3729Z" fill="#FFBB01"/>
<path id="Vector_4" d="M35.5332 33.4915V29.9661C35.5332 29.4793 35.1452 29.0847 34.6666 29.0847C34.1881 29.0847 33.8001 29.4793 33.8001 29.9661V33.4915C33.8001 33.9782 34.1881 34.3729 34.6666 34.3729C35.1452 34.3729 35.5332 33.9782 35.5332 33.4915Z" fill="#FFBB01"/>
<path id="Vector_5" d="M38.9998 33.4915V29.9661C38.9998 29.4793 38.6118 29.0847 38.1332 29.0847C37.6547 29.0847 37.2667 29.4793 37.2667 29.9661V33.4915C37.2667 33.9782 37.6547 34.3729 38.1332 34.3729C38.6118 34.3729 38.9998 33.9782 38.9998 33.4915Z" fill="#FFBB01"/>
<path id="Vector_6" d="M42.4663 33.4915V29.9661C42.4663 29.4793 42.0783 29.0847 41.5998 29.0847C41.1212 29.0847 40.7332 29.4793 40.7332 29.9661V33.4915C40.7332 33.9782 41.1212 34.3729 41.5998 34.3729C42.0783 34.3729 42.4663 33.9782 42.4663 33.4915Z" fill="#FFBB01"/>
<path id="Vector_7" d="M27.7327 44.9492C27.2542 44.9492 26.8662 45.3439 26.8662 45.8306C26.8662 46.3173 26.4782 46.7119 25.9996 46.7119C25.5211 46.7119 25.1331 46.3173 25.1331 45.8306C25.1331 45.3439 25.5211 44.9492 25.9996 44.9492C26.4782 44.9492 26.8662 44.5546 26.8662 44.0679C26.8662 43.5812 26.4782 43.1865 25.9996 43.1865C24.564 43.1865 23.4 44.3704 23.4 45.8306C23.4 47.2912 24.564 48.4747 25.9996 48.4747C27.4353 48.4747 28.5993 47.2912 28.5993 45.8306C28.5993 45.3439 28.2113 44.9492 27.7327 44.9492Z" fill="#FFBB01"/>
<path id="Vector_8" d="M31.2001 43.1865C30.7215 43.1865 30.3335 43.5812 30.3335 44.0679V47.5933C30.3335 48.08 30.7215 48.4747 31.2001 48.4747C31.6786 48.4747 32.0666 48.08 32.0666 47.5933V44.0679C32.0666 43.5812 31.6786 43.1865 31.2001 43.1865Z" fill="#FFBB01"/>
<path id="Vector_9" d="M34.6666 43.1865C34.1881 43.1865 33.8001 43.5812 33.8001 44.0679V47.5933C33.8001 48.08 34.1881 48.4747 34.6666 48.4747C35.1452 48.4747 35.5332 48.08 35.5332 47.5933V44.0679C35.5332 43.5812 35.1452 43.1865 34.6666 43.1865Z" fill="#FFBB01"/>
<path id="Vector_10" d="M38.1332 43.1865C37.6547 43.1865 37.2667 43.5812 37.2667 44.0679V47.5933C37.2667 48.08 37.6547 48.4747 38.1332 48.4747C38.6118 48.4747 38.9998 48.08 38.9998 47.5933V44.0679C38.9998 43.5812 38.6118 43.1865 38.1332 43.1865Z" fill="#FFBB01"/>
<path id="Vector_11" d="M41.5998 43.1865C41.1212 43.1865 40.7332 43.5812 40.7332 44.0679V47.5933C40.7332 48.08 41.1212 48.4747 41.5998 48.4747C42.0783 48.4747 42.4663 48.08 42.4663 47.5933V44.0679C42.4663 43.5812 42.0783 43.1865 41.5998 43.1865Z" fill="#FFBB01"/>
<path id="Vector_12" d="M6.569 31.5615C6.68368 31.6131 6.80767 31.6398 6.93293 31.6407C7.33453 31.6346 7.67899 31.3485 7.76575 30.95C7.85207 30.551 7.65826 30.1443 7.29687 29.9662C3.22295 28.0675 0.999157 23.5398 1.95427 19.0869C2.90895 14.6341 6.78482 11.459 11.2663 11.4577C12.1456 11.4573 13.0207 11.5816 13.8663 11.8278C14.2979 11.9548 14.7528 11.725 14.9149 11.2993C17.0959 5.54643 22.5367 1.75505 28.5996 1.7628C35.505 1.79722 41.4717 6.67739 42.9863 13.529C43.0637 13.8823 43.3456 14.1513 43.6968 14.2076C47.4791 14.8222 50.2632 18.1389 50.2662 22.034C50.2624 22.2905 50.245 22.5465 50.2141 22.8009C50.1824 23.0375 50.2467 23.2777 50.3919 23.4653C50.5374 23.653 50.7516 23.7726 50.9856 23.7967C51.2171 23.8212 51.4485 23.7502 51.6275 23.5992C51.807 23.4485 51.9191 23.2308 51.939 22.9949C51.9771 22.6761 51.9974 22.3554 51.9995 22.034C52.0173 17.4895 48.9116 13.5492 44.5461 12.577C42.6431 5.19698 36.1021 0.0379558 28.5996 8.50162e-05C22.0894 -0.0210021 16.1857 3.88227 13.5628 9.94202C12.8083 9.77719 12.0381 9.69414 11.2663 9.695C5.97486 9.70059 1.40033 13.4502 0.270871 18.7074C-0.858164 23.9645 1.76172 29.3125 6.569 31.5615Z" fill="#FFBB01"/>
<path id="Vector_13" d="M13.8666 32.2669C13.9381 32.2793 14.0118 32.2793 14.0833 32.2669C15.0713 32.0112 16.0191 31.6166 16.8996 31.0946C17.0989 30.9767 17.2436 30.783 17.302 30.5567C17.3604 30.3299 17.3278 30.0893 17.2114 29.887C16.9707 29.4704 16.4451 29.3289 16.033 29.5699C15.2866 30.0097 14.4848 30.3449 13.65 30.5657C13.1714 30.6264 12.8321 31.0705 12.8918 31.5572C12.9514 32.0439 13.3881 32.3891 13.8666 32.3284V32.2669Z" fill="#FFBB01"/>
<path id="Vector_14" d="M10.3993 37.8983C10.8779 37.8983 11.266 37.5036 11.266 37.0169V23.1799L13.1466 26.0443C13.3061 26.2904 13.5761 26.4393 13.866 26.4406C14.0365 26.4428 14.2033 26.3903 14.3425 26.2909C14.7382 26.0219 14.8465 25.4792 14.5854 25.0747L11.1187 19.7866C11.1187 19.7866 11.1187 19.7866 11.0751 19.7422C10.911 19.534 10.6621 19.4126 10.3993 19.4126C10.1365 19.4126 9.88772 19.534 9.72352 19.7422C9.72352 19.7422 9.72352 19.7422 9.67994 19.7866L6.21328 25.0747C6.00169 25.4758 6.12526 25.9746 6.4985 26.2259C6.87132 26.4772 7.37109 26.3985 7.65208 26.0443L9.53267 23.1799V37.0169C9.53267 37.5036 9.92072 37.8983 10.3993 37.8983Z" fill="#FFBB01"/>
<path id="Vector_15" d="M32.5432 16.0143C32.1458 15.7488 31.6118 15.859 31.3473 16.2614L29.4667 19.1258V8.81373C29.4667 8.327 29.0786 7.93237 28.6 7.93237C28.1214 7.93237 27.7334 8.327 27.7334 8.81373V19.1258L25.8528 16.2614C25.697 15.9666 25.3911 15.7867 25.0623 15.797C24.7335 15.8073 24.4389 16.0057 24.3014 16.3096C24.1643 16.6134 24.2079 16.9701 24.414 17.2309L27.8806 22.5191C28.0418 22.7626 28.3114 22.9085 28.6 22.9085C28.8886 22.9085 29.1582 22.7626 29.3194 22.5191L32.7861 17.2309C33.0472 16.8264 32.9388 16.2833 32.5432 16.0143Z" fill="#FFBB01"/>
</g>
</svg>
