<svg width="52" height="52" viewBox="0 0 52 52" fill="none" xmlns="http://www.w3.org/2000/svg">
<g id="agreement-img">
<path id="Vector" d="M50.5208 21.8012L41.9382 30.3726L37.0401 25.472L40.7419 21.8012C41.0365 21.4575 41.0166 20.9456 40.6962 20.6255C40.3762 20.3059 39.8636 20.2861 39.5194 20.5803L35.8091 24.2426L33.3641 21.7923L41.9382 13.221C42.2743 12.8832 42.2743 12.3378 41.9382 12C41.6 11.6644 41.0539 11.6644 40.7157 12L31.5176 21.1865C31.3534 21.3489 31.2611 21.5704 31.2611 21.8012C31.2611 22.032 31.3534 22.2532 31.5176 22.4159L32.7486 23.6364L31.5176 24.8662C30.0623 23.4115 27.7832 23.1798 26.0646 24.312L25.3885 23.6364C24.5762 22.8273 23.4756 22.3728 22.328 22.3724C21.7858 22.3724 21.2477 22.4721 20.7415 22.667L19.259 21.1865L19.8745 20.5803C20.0388 20.4175 20.1311 20.1964 20.1311 19.9656C20.1311 19.7348 20.0388 19.5133 19.8745 19.3509L11.2661 10.7795C10.9262 10.4422 10.3768 10.4443 10.0394 10.7838C9.70159 11.1232 9.70371 11.6716 10.0436 12.0089L18.0107 19.9656L17.3952 20.5714L13.0605 24.8573L10.0004 21.7923C9.83747 21.6283 9.61608 21.5362 9.38495 21.5362C9.15383 21.5362 8.93202 21.6283 8.76947 21.7923C8.43294 22.1301 8.43294 22.6755 8.76947 23.0133L11.838 26.0783L10.607 27.2987L9.45395 28.5717L1.48687 20.5803C1.32432 20.4163 1.10251 20.3241 0.871384 20.3241C0.640258 20.3241 0.418868 20.4163 0.255895 20.5803C-0.0802119 20.9181 -0.0802119 21.4634 0.255895 21.8012L8.83846 30.3726C9.00228 30.5345 9.22367 30.625 9.45395 30.6237C9.68466 30.625 9.90605 30.5345 10.0699 30.3726L11.2661 29.1517L12.4882 30.3726C10.7963 32.0632 10.7963 34.8031 12.4882 36.4937L14.1184 38.0955C14.2809 38.2596 14.5027 38.3517 14.7339 38.3517C14.965 38.3517 15.1864 38.2596 15.3494 38.0955C15.6855 37.7577 15.6855 37.2124 15.3494 36.8746L13.7455 35.2732C13.2557 34.7858 12.9805 34.1237 12.9805 33.4334C12.9805 32.7426 13.2557 32.0806 13.7455 31.5935L14.3525 30.9873L20.49 24.8573C21.5203 23.8812 23.1357 23.8812 24.166 24.8573L29.6796 30.3637C29.9742 30.7074 29.9543 31.2194 29.6343 31.5394C29.3139 31.859 28.8012 31.8789 28.4575 31.5847L24.4606 27.5934C24.1186 27.2539 23.5653 27.2556 23.2254 27.5976C22.8855 27.9396 22.8872 28.4918 23.2297 28.8312L27.2261 32.8229C27.9694 33.5708 29.0912 33.7965 30.0661 33.3941C31.0414 32.9916 31.6764 32.0408 31.6738 30.9873C31.673 30.2986 31.3987 29.6383 30.9106 29.1517L27.3391 25.5845C28.3348 25.1338 29.5048 25.3325 30.2951 26.0867L37.6556 33.4376C38.1403 33.9255 38.4116 34.5858 38.4099 35.2732C38.4116 35.9606 38.1403 36.6205 37.6556 37.1084L35.2021 39.5587L32.6881 42.061L30.9106 43.8446L26.004 48.7448C25.6658 49.0804 25.1197 49.0804 24.7815 48.7448C24.4454 48.4074 24.4454 47.8621 24.7815 47.5243L30.3387 42.0001C30.5859 41.7887 30.6939 41.4564 30.6177 41.1402C30.5415 40.824 30.2943 40.5771 29.9776 40.501C29.6606 40.4249 29.3283 40.5323 29.1162 40.7796L23.5937 46.286C23.25 46.5803 22.7374 46.5604 22.4169 46.2408C22.0969 45.9208 22.077 45.4088 22.3716 45.0651L27.8852 39.5587C28.0495 39.3964 28.1417 39.1748 28.1417 38.944C28.1417 38.7132 28.0495 38.4921 27.8852 38.3293C27.547 37.9937 27.0009 37.9937 26.6627 38.3293L21.1402 43.8446C20.8024 44.1803 20.2564 44.1803 19.9181 43.8446C19.7539 43.6818 19.6616 43.4607 19.6616 43.2299C19.6616 42.9991 19.7539 42.7776 19.9181 42.6152L25.4317 37.1084C25.596 36.9461 25.6882 36.7245 25.6882 36.4937C25.6882 36.2629 25.596 36.0418 25.4317 35.879C25.0935 35.5434 24.5474 35.5434 24.2092 35.879L18.6871 41.3943C18.3472 41.7312 17.7978 41.7295 17.4604 41.3901C17.1226 41.0506 17.1247 40.5019 17.4646 40.1649L24.1313 33.5154C24.4712 33.1759 24.4712 32.6255 24.1313 32.286C23.7914 31.9465 23.2402 31.9465 22.9003 32.286L16.1989 38.9613C15.1847 39.9755 15.1847 41.6184 16.1989 42.6326C16.6468 43.0891 17.25 43.3614 17.8892 43.3944C17.9667 44.7125 19.0224 45.7631 20.3427 45.8358C20.4159 47.1577 21.4729 48.2129 22.7962 48.2861C22.8212 48.9371 23.0904 49.5556 23.5505 50.0177C24.332 50.7964 25.5206 50.9981 26.5154 50.5199L27.2261 51.2386C27.9563 51.9683 29.0502 52.1974 30.0128 51.822C30.9749 51.4466 31.6234 50.5381 31.6649 49.507C32.3181 49.4871 32.9391 49.2174 33.3988 48.7537C33.8492 48.3021 34.1176 47.7014 34.1531 47.0652C35.4768 46.9924 36.5334 45.9368 36.6066 44.6149C37.6391 44.5739 38.5488 43.9258 38.9247 42.9648C39.301 42.0035 39.0715 40.9115 38.3405 40.1823L37.725 39.576L38.956 38.3467C39.7662 37.5354 40.2212 36.4362 40.2217 35.2901C40.2014 34.4332 39.9266 33.6016 39.4326 32.9007L40.7419 31.5935L41.3574 32.2082C41.6956 32.5439 42.2417 32.5439 42.5799 32.2082L51.7517 23.0217C52.0878 22.6844 52.0878 22.1386 51.7517 21.8012C51.5892 21.6372 51.3674 21.545 51.1362 21.545C50.9051 21.545 50.6837 21.6372 50.5208 21.8012ZM12.5145 27.9223L18.0369 22.4159L19.259 23.6364L13.7455 29.1517L12.5145 27.9223ZM29.6796 49.9657C29.3414 50.3014 28.7953 50.3014 28.4575 49.9657L27.842 49.351L29.073 48.1301L29.6796 48.7363C29.8439 48.8987 29.9361 49.1202 29.9361 49.351C29.9361 49.5818 29.8439 49.8034 29.6796 49.9657ZM32.1331 47.5154C31.7949 47.8511 31.2488 47.8511 30.9106 47.5154L30.3387 46.9007L30.9542 46.286L31.5608 45.6798L32.1767 46.286C32.3405 46.4488 32.4328 46.6699 32.4328 46.9007C32.4328 47.1315 32.3405 47.3531 32.1767 47.5154H32.1331ZM34.5866 45.0651C34.2484 45.4008 33.7023 45.4008 33.3641 45.0651L32.7486 44.4504L33.9711 43.2299L34.5866 43.8446C34.9227 44.1824 34.9227 44.7277 34.5866 45.0651ZM37.0401 42.6152C36.8771 42.7788 36.6557 42.871 36.4246 42.871C36.1935 42.871 35.9717 42.7788 35.8091 42.6152L35.2021 42.0001L36.4072 40.7796L37.0227 41.3943C37.3635 41.727 37.3715 42.2728 37.0401 42.6152ZM38.2622 31.5935L32.7486 26.0867L33.9711 24.8662L39.4936 30.3726L38.2622 31.5935Z" fill="#FFBB01"/>
<path id="Vector_2" d="M16.4642 13.8529H35.5323C36.0109 13.8529 36.399 13.4652 36.399 12.9871V0.865806C36.399 0.387668 36.0109 0 35.5323 0H16.4642C15.9856 0 15.5975 0.387668 15.5975 0.865806V12.9871C15.5975 13.4652 15.9856 13.8529 16.4642 13.8529ZM17.331 10.3897C18.2883 10.3897 19.0644 11.165 19.0644 12.1213H17.331V10.3897ZM34.6655 12.1213H32.9321C32.9321 11.165 33.7082 10.3897 34.6655 10.3897V12.1213ZM34.6655 3.46322C33.7082 3.46322 32.9321 2.68789 32.9321 1.73161H34.6655V3.46322ZM34.6655 5.19483V8.65806C32.7505 8.65806 31.1986 10.2087 31.1986 12.1213H20.7979C20.7979 10.2087 19.2456 8.65806 17.331 8.65806V5.19483C19.2456 5.19483 20.7979 3.64416 20.7979 1.73161H31.1986C31.1986 3.64416 32.7505 5.19483 34.6655 5.19483ZM17.331 1.73161H19.0644C19.0644 2.68789 18.2883 3.46322 17.331 3.46322V1.73161Z" fill="#FFBB01"/>
<path id="Vector_3" d="M25.9975 10.3896C27.9119 10.3896 29.464 8.83891 29.464 6.92636C29.464 5.01381 27.9119 3.46313 25.9975 3.46313C24.0828 3.46313 22.5311 5.01381 22.5311 6.92636C22.5311 8.83891 24.0828 10.3896 25.9975 10.3896ZM25.9975 5.19475C26.9547 5.19475 27.7308 5.97008 27.7308 6.92636C27.7308 7.88263 26.9547 8.65797 25.9975 8.65797C25.0404 8.65797 24.2643 7.88263 24.2643 6.92636C24.2643 5.97008 25.0404 5.19475 25.9975 5.19475Z" fill="#FFBB01"/>
<path id="Vector_4" d="M32.9316 6.92635C32.9316 7.40449 32.5436 7.79216 32.065 7.79216C31.5864 7.79216 31.1984 7.40449 31.1984 6.92635C31.1984 6.44821 31.5864 6.06055 32.065 6.06055C32.5436 6.06055 32.9316 6.44821 32.9316 6.92635Z" fill="#FFBB01"/>
<path id="Vector_5" d="M20.7975 6.92635C20.7975 7.40449 20.4094 7.79216 19.9309 7.79216C19.4523 7.79216 19.0642 7.40449 19.0642 6.92635C19.0642 6.44821 19.4523 6.06055 19.9309 6.06055C20.4094 6.06055 20.7975 6.44821 20.7975 6.92635Z" fill="#FFBB01"/>
<path id="Vector_6" d="M51.8528 5.58444L48.3858 0.389609C48.2246 0.149906 47.955 0.0065918 47.6664 0.0065918C47.3778 0.0065918 47.1077 0.149906 46.9469 0.389609L43.48 5.58444C43.3852 5.72522 43.334 5.89094 43.3327 6.06047V9.52369C43.3327 10.0018 43.7208 10.3895 44.1995 10.3895C44.6781 10.3895 45.0662 10.0018 45.0662 9.52369V6.32004L47.6664 2.42391L50.2666 6.32004V15.5843C50.2666 16.0625 50.6547 16.4501 51.1333 16.4501C51.612 16.4501 52 16.0625 52 15.5843V6.06047C51.9988 5.89094 51.9476 5.72522 51.8528 5.58444Z" fill="#FFBB01"/>
<path id="Vector_7" d="M48.533 12.1212V6.92635C48.533 6.44821 48.1449 6.06055 47.6663 6.06055C47.1877 6.06055 46.7997 6.44821 46.7997 6.92635V12.1212C46.7997 12.5993 47.1877 12.987 47.6663 12.987C48.1449 12.987 48.533 12.5993 48.533 12.1212Z" fill="#FFBB01"/>
<path id="Vector_8" d="M0.862807 7.79212H1.72954V18.1818C1.72954 18.6599 2.11762 19.0476 2.59626 19.0476C3.07491 19.0476 3.46299 18.6599 3.46299 18.1818V6.92632C3.46299 6.44818 3.07491 6.06051 2.59626 6.06051H2.54421L5.19645 2.35505L7.84869 6.06051H7.79664C7.31799 6.06051 6.92991 6.44818 6.92991 6.92632V8.65793C6.92991 9.13607 7.31799 9.52374 7.79664 9.52374C8.27529 9.52374 8.66337 9.13607 8.66337 8.65793V7.79212H9.5301C9.85385 7.79043 10.1497 7.60907 10.2974 7.32117C10.4451 7.0337 10.4197 6.68746 10.2322 6.42408L5.89855 0.363446C5.7352 0.138539 5.4745 0.00537109 5.19645 0.00537109C4.9184 0.00537109 4.65729 0.138539 4.49435 0.363446L0.160705 6.42408C-0.0271988 6.68746 -0.0521681 7.0337 0.0955314 7.32117C0.243231 7.60907 0.539053 7.79043 0.862807 7.79212Z" fill="#FFBB01"/>
<path id="Vector_9" d="M5.19577 12.1214V14.7188C5.19577 15.197 5.5838 15.5846 6.06239 15.5846C6.54098 15.5846 6.92901 15.197 6.92901 14.7188V12.1214C6.92901 11.6433 6.54098 11.2556 6.06239 11.2556C5.5838 11.2556 5.19577 11.6433 5.19577 12.1214Z" fill="#FFBB01"/>
</g>
</svg>
