<svg width="52" height="52" viewBox="0 0 52 52" fill="none" xmlns="http://www.w3.org/2000/svg">
<rect width="52" height="52" fill="#E5E5E5"/>
<g id="deadline-img">
<path id="Vector" d="M44.5421 38.171L41.4225 41.2386L39.5542 39.393C39.2087 39.0532 38.6485 39.0532 38.303 39.393C37.9574 39.7328 37.9574 40.2837 38.303 40.6234L40.7969 43.0758C40.9621 43.24 41.1876 43.3322 41.4225 43.3322C41.6575 43.3322 41.8825 43.24 42.0482 43.0758L45.8286 39.393C46.0799 39.1814 46.1896 38.8489 46.1122 38.5324C46.0347 38.2155 45.7835 37.9684 45.4616 37.8922C45.1398 37.8161 44.8016 37.9239 44.586 38.171H44.5421Z" fill="#FFBB01"/>
<path id="Vector_2" d="M45.8296 32.1486V29.4623C45.8296 28.9837 45.435 28.5957 44.9483 28.5957H42.3043V27.7292C42.3043 26.2936 43.4881 25.1296 44.9483 25.1296C45.435 25.1296 45.8296 24.7416 45.8296 24.263C45.8296 23.7845 45.435 23.3965 44.9483 23.3965C42.5147 23.3965 40.5416 25.3365 40.5416 27.7292V28.5957H37.8976C37.4109 28.5957 37.0163 28.9837 37.0163 29.4623V32.1486C32.4964 34.1855 30.0301 39.0428 31.0901 43.8185C32.1504 48.5947 36.4508 51.9999 41.4229 51.9999C46.3946 51.9999 50.6954 48.5947 51.7558 43.8185C52.8157 39.0428 50.3494 34.1855 45.8296 32.1486ZM42.3043 50.2592V49.3926C42.3043 48.9141 41.9096 48.5261 41.4229 48.5261C40.9362 48.5261 40.5416 48.9141 40.5416 49.3926V50.2592C36.3389 49.8632 33.0124 46.5925 32.6096 42.4603H33.4909C33.9776 42.4603 34.3723 42.0723 34.3723 41.5938C34.3723 41.1153 33.9776 40.7273 33.4909 40.7273H32.6096C32.9418 37.4909 35.0892 34.7101 38.1709 33.5263C38.51 33.3976 38.7337 33.0778 38.735 32.7202V30.3288H44.023V32.7202C44.0239 33.0778 44.2477 33.3976 44.5868 33.5263C47.7029 34.6843 49.8886 37.4701 50.2363 40.7273H49.3549C48.8682 40.7273 48.4736 41.1153 48.4736 41.5938C48.4736 42.0723 48.8682 42.4603 49.3549 42.4603H50.2363C49.8335 46.5925 46.507 49.8632 42.3043 50.2592Z" fill="#FFBB01"/>
<path id="Vector_3" d="M28.3877 45.0601C28.2027 45.0601 4.40667 45.0601 4.40667 45.0601C2.94653 45.0601 1.76267 43.8961 1.76267 42.4604V14.7312H47.5921V30.7275C47.5921 31.206 47.9867 31.594 48.4734 31.594C48.9601 31.594 49.3547 31.206 49.3547 30.7275V8.66539C49.3547 6.27268 47.3816 4.3327 44.9481 4.3327H43.1854V3.46616C43.1854 2.98761 42.7908 2.59962 42.3041 2.59962C41.8173 2.59962 41.4227 2.98761 41.4227 3.46616V6.93232C41.4227 7.8894 40.6335 8.66539 39.66 8.66539C38.6866 8.66539 37.8974 7.8894 37.8974 6.93232V3.46616C37.8974 2.50907 38.6866 1.73308 39.66 1.73308C40.1468 1.73308 40.5414 1.34508 40.5414 0.866539C40.5414 0.387996 40.1468 0 39.66 0C37.7132 0 36.1347 1.55199 36.1347 3.46616V4.3327H28.2027V3.46616C28.2027 2.98761 27.8081 2.59962 27.3214 2.59962C26.8347 2.59962 26.44 2.98761 26.44 3.46616V6.93232C26.44 7.8894 25.6508 8.66539 24.6774 8.66539C23.7039 8.66539 22.9147 7.8894 22.9147 6.93232V3.46616C22.9147 2.50907 23.7039 1.73308 24.6774 1.73308C25.1641 1.73308 25.5587 1.34508 25.5587 0.866539C25.5587 0.387996 25.1641 0 24.6774 0C22.7305 0 21.152 1.55199 21.152 3.46616V4.3327H13.22V3.46616C13.22 2.98761 12.8254 2.59962 12.3387 2.59962C11.852 2.59962 11.4573 2.98761 11.4573 3.46616V6.93232C11.4573 7.8894 10.6681 8.66539 9.69468 8.66539C8.72125 8.66539 7.93201 7.8894 7.93201 6.93232V3.46616C7.93201 2.50907 8.72125 1.73308 9.69468 1.73308C10.1814 1.73308 10.576 1.34508 10.576 0.866539C10.576 0.387996 10.1814 0 9.69468 0C7.74782 0 6.16934 1.55199 6.16934 3.46616V4.3327H4.40667C1.9731 4.3327 0 6.27268 0 8.66539V42.4604C0 44.8531 1.9731 46.7931 4.40667 46.7931H24.6774C29.3044 46.7931 29.3044 46.7931 29.3044 45.9266C29.3057 45.6964 29.2136 45.4747 29.0487 45.3114C28.874 45.1404 28.6343 45.0491 28.3877 45.0601ZM4.40667 6.06578H6.16934V6.93232C6.16934 8.84649 7.74782 10.3985 9.69468 10.3985C11.6415 10.3985 13.22 8.84649 13.22 6.93232V6.06578H21.152V6.93232C21.152 8.84649 22.7305 10.3985 24.6774 10.3985C26.6242 10.3985 28.2027 8.84649 28.2027 6.93232V6.06578H36.1347V6.93232C36.1347 8.84649 37.7132 10.3985 39.66 10.3985C41.6069 10.3985 43.1854 8.84649 43.1854 6.93232V6.06578H44.9481C46.4082 6.06578 47.5921 7.22977 47.5921 8.66539V12.9981H1.76267V8.66539C1.76267 7.22977 2.94653 6.06578 4.40667 6.06578Z" fill="#FFBB01"/>
<path id="Vector_4" d="M15.8642 18.1974C15.8642 17.7188 15.4696 17.3308 14.9829 17.3308H7.93224C7.44552 17.3308 7.0509 17.7188 7.0509 18.1974V25.1297C7.0509 25.6082 7.44552 25.9962 7.93224 25.9962H14.9829C15.4696 25.9962 15.8642 25.6082 15.8642 25.1297V18.1974ZM14.1016 24.2631H8.81357V19.0639H14.1016V24.2631Z" fill="#FFBB01"/>
<path id="Vector_5" d="M14.9829 31.1955C15.4696 31.1955 15.8642 30.8075 15.8642 30.3289C15.8642 29.8504 15.4696 29.4624 14.9829 29.4624H7.93224C7.44552 29.4624 7.0509 29.8504 7.0509 30.3289V37.2612C7.0509 37.7398 7.44552 38.1278 7.93224 38.1278H14.9829C15.4696 38.1278 15.8642 37.7398 15.8642 37.2612V33.7951C15.8642 33.3166 15.4696 32.9286 14.9829 32.9286C14.4962 32.9286 14.1016 33.3166 14.1016 33.7951V36.3947H8.81357V31.1955H14.9829Z" fill="#FFBB01"/>
<path id="Vector_6" d="M20.271 29.4624C19.7843 29.4624 19.3896 29.8504 19.3896 30.3289V37.2612C19.3896 37.7398 19.7843 38.1278 20.271 38.1278H27.3216C27.8084 38.1278 28.203 37.7398 28.203 37.2612V30.3289C28.203 29.8504 27.8084 29.4624 27.3216 29.4624H20.271ZM26.4403 36.3947H21.1523V31.1955H26.4403V36.3947Z" fill="#FFBB01"/>
<path id="Vector_7" d="M39.6603 24.2631C40.147 24.2631 40.5416 23.8751 40.5416 23.3966V18.1974C40.5416 17.7188 40.147 17.3308 39.6603 17.3308H32.6096C32.1229 17.3308 31.7283 17.7188 31.7283 18.1974V25.1297C31.7283 25.6082 32.1229 25.9962 32.6096 25.9962C33.0963 25.9962 33.4909 25.6082 33.4909 25.1297V19.0639H38.7789V23.3966C38.7789 23.8751 39.1736 24.2631 39.6603 24.2631Z" fill="#FFBB01"/>
<path id="Vector_8" d="M27.9474 17.5821C27.7817 17.4179 27.5566 17.3257 27.3217 17.3257C27.0867 17.3257 26.8612 17.4179 26.6959 17.5821L23.7963 20.4415L20.8967 17.5821C20.5511 17.2423 19.9908 17.2423 19.6453 17.5821C19.2997 17.9219 19.2997 18.4727 19.6453 18.8125L22.5535 21.6635L19.6453 24.5144C19.4783 24.6769 19.3845 24.8986 19.3845 25.1296C19.3845 25.3606 19.4783 25.5823 19.6453 25.7448C19.8105 25.909 20.036 26.0012 20.271 26.0012C20.506 26.0012 20.731 25.909 20.8967 25.7448L23.7963 22.8854L26.6959 25.7448C26.8612 25.909 27.0867 26.0012 27.3217 26.0012C27.5566 26.0012 27.7817 25.909 27.9474 25.7448C28.1143 25.5823 28.2082 25.3606 28.2082 25.1296C28.2082 24.8986 28.1143 24.6769 27.9474 24.5144L25.0391 21.6635L27.9474 18.8125C28.1143 18.65 28.2082 18.4283 28.2082 18.1973C28.2082 17.9663 28.1143 17.7446 27.9474 17.5821Z" fill="#FFBB01"/>
</g>
</svg>
