<svg width="52" height="52" viewBox="0 0 52 52" fill="none" xmlns="http://www.w3.org/2000/svg">
<g id="conversation-img">
<path id="Vector" d="M46.0321 50.2666H5.11421C4.64344 50.2666 4.26175 50.6547 4.26175 51.1333C4.26175 51.6119 4.64344 51.9999 5.11421 51.9999H46.0321C46.5029 51.9999 46.8845 51.6119 46.8845 51.1333C46.8845 50.6547 46.5029 50.2666 46.0321 50.2666Z" fill="#FFBB01"/>
<path id="Vector_2" d="M9.37702 31.2C11.7308 31.2 13.6393 33.1402 13.6393 35.5333V39C13.6393 39.4786 14.021 39.8667 14.4918 39.8667C14.9625 39.8667 15.3442 39.4786 15.3442 39V35.5333C15.345 32.8499 13.6114 30.4848 11.0819 29.718V27.6466C13.0666 27.2348 14.4922 25.4596 14.4918 23.4V18.9541C15.9965 18.5588 17.0479 17.1797 17.0491 15.6V13C17.0491 12.5214 16.6674 12.1333 16.1967 12.1333H6.81965C3.99505 12.1333 1.70491 14.4616 1.70491 17.3333V20.8C1.70616 22.3797 2.75758 23.7588 4.26228 24.1541V29.718C1.7328 30.4848 -0.000832177 32.8499 2.99681e-07 35.5333V47.6667C2.99681e-07 48.1453 0.381691 48.5333 0.852456 48.5333C1.32322 48.5333 1.70491 48.1453 1.70491 47.6667V35.5333C1.70491 33.1402 3.61336 31.2 5.96719 31.2H9.37702ZM12.7868 23.4C12.7868 24.8358 11.6418 26 10.2295 26H5.96719V24.2666H6.81965C7.76118 24.2666 8.52456 23.4905 8.52456 22.5333V19.0666H12.7868V23.4ZM3.40982 20.8V17.3333C3.40982 15.4188 4.93659 13.8666 6.81965 13.8666H15.3442V15.6C15.3442 16.5572 14.5808 17.3333 13.6393 17.3333H7.6721C7.20134 17.3333 6.81965 17.7214 6.81965 18.2V22.5333H5.11474C4.17321 22.5333 3.40982 21.7572 3.40982 20.8ZM5.96719 27.7333H9.37702V29.4666H5.96719V27.7333Z" fill="#FFBB01"/>
<path id="Vector_3" d="M48.5901 25.1333V22.8105C50.6713 21.8071 51.9983 19.6752 52 17.3333V16.4666C52 13.1159 49.3285 10.4 46.0328 10.4H37.5082C36.3015 10.394 35.149 10.9086 34.3365 11.8155C33.524 12.7224 33.1277 13.9369 33.2459 15.1582C33.4674 17.0341 34.8376 18.5597 36.6557 18.9541V23.4C36.6553 25.4596 38.0809 27.2348 40.0656 27.6465V29.718C37.5361 30.4848 35.8025 32.8499 35.8033 35.5333V39C35.8033 39.4786 36.185 39.8666 36.6557 39.8666C37.1265 39.8666 37.5082 39.4786 37.5082 39V35.5333C37.5082 33.1402 39.4167 31.2 41.7705 31.2H45.1803C47.5341 31.2 49.4426 33.1402 49.4426 35.5333V47.6666C49.4426 48.1453 49.8243 48.5333 50.295 48.5333C50.7658 48.5333 51.1475 48.1453 51.1475 47.6666V35.5333C51.1483 32.8499 49.4147 30.4848 46.8852 29.718V27.586C47.9075 27.2187 48.5906 26.2357 48.5901 25.1333ZM34.9508 14.9931C34.8863 14.2631 35.1277 13.5395 35.6156 13C36.0976 12.4519 36.7852 12.1371 37.5082 12.1333H46.0328C48.3866 12.1333 50.295 14.0736 50.295 16.4666V17.3333C50.2938 19.1403 49.1895 20.7568 47.5246 21.3894H47.4563C47.0588 21.5333 46.6421 21.615 46.2205 21.6319H44.3279C43.8571 21.6319 43.4754 21.2439 43.4754 20.7653V18.2C43.4754 17.7213 43.0937 17.3333 42.6229 17.3333H37.6531C36.2986 17.3638 35.1365 16.3579 34.9508 14.9931ZM38.3607 23.4V19.0666H41.7705V20.8C41.7705 22.2358 42.9156 23.4 44.3279 23.4H46.2883C46.4931 23.4 46.6892 23.4 46.8852 23.3479V25.1333C46.8852 25.6119 46.5035 26 46.0328 26H40.918C39.5057 26 38.3607 24.8358 38.3607 23.4ZM41.7705 29.4666V27.7333H45.1803V29.4666H41.7705Z" fill="#FFBB01"/>
<path id="Vector_4" d="M46.0321 35.5334C45.5613 35.5334 45.1796 35.9215 45.1796 36.4001V44.2001C45.1796 45.636 44.0346 46.8001 42.6223 46.8001H34.0977V43.3335H40.9174C41.3881 43.3335 41.7698 42.9454 41.7698 42.4668V36.4001C41.7698 35.9215 41.3881 35.5334 40.9174 35.5334C40.4466 35.5334 40.0649 35.9215 40.0649 36.4001V41.6001H31.5403C30.3228 41.6014 29.1982 42.2628 28.59 43.3351C27.9819 44.4075 27.9819 45.7282 28.5909 46.8001H22.5554C23.1644 45.7282 23.1644 44.4075 22.5563 43.3351C21.9481 42.2628 20.8235 41.6014 19.606 41.6001H11.0814V36.4001C11.0814 35.9215 10.6997 35.5334 10.2289 35.5334C9.75818 35.5334 9.37648 35.9215 9.37648 36.4001V42.4668C9.37648 42.9454 9.75818 43.3335 10.2289 43.3335H17.0486V46.8001H8.52403C7.11173 46.8001 5.96666 45.636 5.96666 44.2001V36.4001C5.96666 35.9215 5.58497 35.5334 5.11421 35.5334C4.64344 35.5334 4.26175 35.9215 4.26175 36.4001V44.2001C4.26175 46.5932 6.1702 48.5335 8.52403 48.5335H42.6223C44.9761 48.5335 46.8845 46.5932 46.8845 44.2001V36.4001C46.8845 35.9215 46.5029 35.5334 46.0321 35.5334ZM18.7535 46.8001V43.3335H19.606C20.5475 43.3335 21.3109 44.1096 21.3109 45.0668C21.3109 46.024 20.5475 46.8001 19.606 46.8001H18.7535ZM29.8354 45.0668C29.8354 44.1096 30.5988 43.3335 31.5403 43.3335H32.3928V46.8001H31.5403C30.5988 46.8001 29.8354 46.024 29.8354 45.0668Z" fill="#FFBB01"/>
<path id="Vector_5" d="M9.37719 10.4H27.2788C29.1618 10.4 30.6886 8.84779 30.6886 6.93334V2.6C30.6886 1.16416 29.5435 0 28.1312 0H16.1968C14.7846 0 13.6395 1.16416 13.6395 2.6V3.97787L8.77198 8.91804C8.53015 9.16729 8.45939 9.54011 8.593 9.86257C8.7237 10.1863 9.03297 10.3983 9.37719 10.4ZM15.0971 4.94864C15.2566 4.78529 15.3456 4.56354 15.3444 4.33334V2.6C15.3444 2.12139 15.7261 1.73333 16.1968 1.73333H28.1312C28.602 1.73333 28.9837 2.12139 28.9837 2.6V6.93334C28.9837 7.89056 28.2203 8.66667 27.2788 8.66667H11.4317L15.0971 4.94864Z" fill="#FFBB01"/>
<path id="Vector_6" d="M21.311 4.33325H17.9016C17.4309 4.33325 17.0493 4.72131 17.0493 5.19992C17.0493 5.67853 17.4309 6.06659 17.9016 6.06659H21.311C21.7817 6.06659 22.1634 5.67853 22.1634 5.19992C22.1634 4.72131 21.7817 4.33325 21.311 4.33325Z" fill="#FFBB01"/>
<path id="Vector_7" d="M26.426 4.33325H24.7212C24.2505 4.33325 23.8689 4.72131 23.8689 5.19992C23.8689 5.67853 24.2505 6.06659 24.7212 6.06659H26.426C26.8967 6.06659 27.2783 5.67853 27.2783 5.19992C27.2783 4.72131 26.8967 4.33325 26.426 4.33325Z" fill="#FFBB01"/>
<path id="Vector_8" d="M20.4591 19.0667C19.0468 19.0667 17.9017 20.2308 17.9017 21.6666V30.3333C17.9017 31.7692 19.0468 32.9333 20.4591 32.9333H25.173L29.1797 37.8214C29.4099 38.102 29.7882 38.2061 30.1258 38.0813C30.4634 37.9573 30.6886 37.6314 30.6886 37.2666V32.9333C32.1009 32.9333 33.2459 31.7692 33.2459 30.3333V21.6666C33.2459 20.2308 32.1009 19.0667 30.6886 19.0667H20.4591ZM31.541 21.6666V30.3333C31.541 30.8119 31.1593 31.2 30.6886 31.2H29.8361C29.3654 31.2 28.9837 31.588 28.9837 32.0666V34.8748L26.2302 31.5119C26.0679 31.3138 25.8273 31.1996 25.5738 31.2H20.4591C19.9883 31.2 19.6066 30.8119 19.6066 30.3333V21.6666C19.6066 21.188 19.9883 20.8 20.4591 20.8H30.6886C31.1593 20.8 31.541 21.188 31.541 21.6666Z" fill="#FFBB01"/>
<path id="Vector_9" d="M22.1639 24.2668H24.721C25.1917 24.2668 25.5733 23.8787 25.5733 23.4001C25.5733 22.9215 25.1917 22.5334 24.721 22.5334H22.1639C21.6932 22.5334 21.3116 22.9215 21.3116 23.4001C21.3116 23.8787 21.6932 24.2668 22.1639 24.2668Z" fill="#FFBB01"/>
<path id="Vector_10" d="M28.1304 27.7334H22.1639C21.6932 27.7334 21.3116 28.1215 21.3116 28.6001C21.3116 29.0787 21.6932 29.4667 22.1639 29.4667H28.1304C28.6011 29.4667 28.9827 29.0787 28.9827 28.6001C28.9827 28.1215 28.6011 27.7334 28.1304 27.7334Z" fill="#FFBB01"/>
<path id="Vector_11" d="M28.9833 24.2666H27.2786C26.8079 24.2666 26.4262 24.6547 26.4262 25.1333C26.4262 25.6119 26.8079 25.9999 27.2786 25.9999H28.9833C29.454 25.9999 29.8356 25.6119 29.8356 25.1333C29.8356 24.6547 29.454 24.2666 28.9833 24.2666Z" fill="#FFBB01"/>
</g>
</svg>
